# xmcd
#
# Track frame offsets:
#	150
#	21612
#	36170
#	54242
#	71940
#	87252
#	104852
#	114037
#	131352
#	148232
#	161122
#	179157
#	193397
#	207875
#	225052
#	241442
#
# Disc length: 3472 seconds
#
# Revision: 6
# Processed by: cddbd v1.5.2PL0 Copyright (c) Steve Scherf et al.
# Submitted via: EasyCDDAExtractor 5.0.6
#
DISCID=ef0d8e10
DTITLE=Cappadonna - The Pillage
DYEAR=1998
DGENRE=Hip-Hop
TTITLE0=Slang Editorial
TTITLE1=Pillage (Feat. Killa Bamz)
TTITLE2=Run
TTITLE3=Blood On Blood War
TTITLE4=Supa Ninjaz (Feat. Method Man and U-God)
TTITLE5=MCF
TTITLE6=Splish Splash
TTITLE7=Oh-Donna (Feat. Ghostface Killah)
TTITLE8=Milk The Cow
TTITLE9=South Of The Border
TTITLE10=Check For A Nigga
TTITLE11=Dart Throwing (Feat. Method Man and Raekwon)
TTITLE12=Young Hearts (Feat. Blue Raspberry)
TTITLE13=Everything Is Everything (Feat. Rhyme Recca)
TTITLE14=Pump Your Fist (Feat. Killa Bamz and Tekitha)
TTITLE15=Black Boy (Feat. Tekitha)
EXTD=YEAR: 1998 ID3G:  12
EXTT0=
EXTT1=
EXTT2=
EXTT3=
EXTT4=
EXTT5=
EXTT6=
EXTT7=
EXTT8=
EXTT9=
EXTT10=
EXTT11=
EXTT12=
EXTT13=
EXTT14=
EXTT15=
PLAYORDER=
